# xmcd CD database file
#
# Track frame offsets:
#	150
#	14765
#	36169
#	50374
#	61026
#	75102
#	91402
#	120457
#	138884
#	156134
#	178236
#	192564
#	211185
#	225246
#	237613
#	248358
#	265331
#	281303
#	292142
#	302875
#
# Disc length: 4257 seconds
#
# Revision: 10
# Processed by: cddbd v1.4PL0 Copyright (c) Steve Scherf et al.
# Submitted via: CDex 1.40PlusFr
#
DISCID=0f109f14
DTITLE=Aznavour - 40 chansons d'or - disc 1
DYEAR=1900
DGENRE=Blues
TTITLE0=Au creux de mon épaule
TTITLE1=Sa jeunesse
TTITLE2=Toi et moi
TTITLE3=Le palais de nos chimères
TTITLE4=Mes emmerdes
TTITLE5=A ma fille
TTITLE6=Non je n'ai rien oublié
TTITLE7=La bohème
TTITLE8=Les deux guitares
TTITLE9=Comme ils disent
TTITLE10=Désormais
TTITLE11=Bon anniversaire
TTITLE12=Il te suffisait que je t'aime
TTITLE13=Pour faire une jam
TTITLE14=Les comédiens
TTITLE15=La mamma
TTITLE16=Emmenez-moi
TTITLE17=Trousse chemise
TTITLE18=Donne tes seize ans
TTITLE19=Tu t'laisses alller
EXTD=Gilbert Schuchter, Klavier\n\n\n\nTudor 741/43\n\n(p) 1988 ID3G: 0
EXTT0=
EXTT1=
EXTT2=
EXTT3=
EXTT4=
EXTT5=
EXTT6=
EXTT7=
EXTT8=
EXTT9=
EXTT10=
EXTT11=
EXTT12=
EXTT13=
EXTT14=
EXTT15=
EXTT16=
EXTT17=
EXTT18=
EXTT19=
PLAYORDER=
